<?xml version="1.0" encoding="UTF-8" standalone="no"?>
<!DOCTYPE svg PUBLIC "-//W3C//DTD SVG 1.1//EN" "http://www.w3.org/Graphics/SVG/1.1/DTD/svg11.dtd">
<svg version="1.1" xmlns="http://www.w3.org/2000/svg" xmlns:xlink="http://www.w3.org/1999/xlink" preserveAspectRatio="xMidYMid meet" viewBox="0 0 1366 768" width="1366" height="768"><defs><path d="M-39.47 7.86L1326.53 7.86L1326.53 775.86L-39.47 775.86L-39.47 7.86Z" id="d1quYzI9oa"></path><path d="M1726.99 143.32C1726.97 421.17 1257.93 646.72 680.24 646.68C102.54 646.63 -366.46 421.02 -366.44 143.17C-366.42 -134.68 102.61 -360.23 680.31 -360.19C1258.01 -360.15 1727.01 -134.54 1726.99 143.32Z" id="igLyKSF9U"></path><path d="M68.42 153.74C68.42 192.95 37.76 224.79 0 224.79C-37.76 224.79 -68.42 192.95 -68.42 153.74C-68.42 114.52 -37.76 82.68 0 82.68C37.76 82.68 68.42 114.52 68.42 153.74Z" id="a2p8IoCSSC"></path><path d="M1277.84 254.39C1277.84 278 1258.68 297.16 1235.08 297.16C1211.48 297.16 1192.32 278 1192.32 254.39C1192.32 230.79 1211.48 211.63 1235.08 211.63C1258.68 211.63 1277.84 230.79 1277.84 254.39Z" id="apGwLO6yI"></path><path d="M526.29 587.03C526.29 599.73 515.68 610.05 502.6 610.05C489.53 610.05 478.92 599.73 478.92 587.03C478.92 574.32 489.53 564 502.6 564C515.68 564 526.29 574.32 526.29 587.03Z" id="b3MtCd3jK6"></path><path d="M1220.53 292.22C1220.53 310.74 1205.2 325.78 1186.32 325.78C1167.43 325.78 1152.11 310.74 1152.11 292.22C1152.11 273.71 1167.43 258.67 1186.32 258.67C1205.2 258.67 1220.53 273.71 1220.53 292.22Z" id="blKMxbKz1"></path><path d="M68.42 487.34C68.42 510.94 50.44 530.11 28.29 530.11C6.14 530.11 -11.84 510.94 -11.84 487.34C-11.84 463.74 6.14 444.58 28.29 444.58C50.44 444.58 68.42 463.74 68.42 487.34Z" id="e2NnocX5j1"></path><path d="M500.79 573.95C500.79 590.87 486 604.61 467.79 604.61C449.57 604.61 434.79 590.87 434.79 573.95C434.79 557.03 449.57 543.29 467.79 543.29C486 543.29 500.79 557.03 500.79 573.95Z" id="bbUwPt943"></path><path d="M1266.53 431.18C1266.53 441.9 1258.46 450.59 1248.53 450.59C1238.59 450.59 1230.53 441.9 1230.53 431.18C1230.53 420.47 1238.59 411.78 1248.53 411.78C1258.46 411.78 1266.53 420.47 1266.53 431.18Z" id="dUplJkvd7"></path><path d="M934.01 518C934.01 543.39 913.72 564 888.73 564C863.73 564 843.44 543.39 843.44 518C843.44 492.61 863.73 472 888.73 472C913.72 472 934.01 492.61 934.01 518Z" id="cT0KBeJIK"></path><path d="M888.73 487.34C888.73 470.42 874.45 456.68 856.87 456.68C839.29 456.68 825.02 470.42 825.02 487.34C825.02 504.26 839.29 518 856.87 518C874.45 518 888.73 504.26 888.73 487.34Z" id="at1U9Z8N4"></path><path d="M322.11 103.77C322.11 125.56 304.71 143.24 283.29 143.24C261.87 143.24 244.48 125.56 244.48 103.77C244.48 81.98 261.87 64.3 283.29 64.3C304.71 64.3 322.11 81.98 322.11 103.77Z" id="djCbU2bC"></path><path d="M328.03 75.8C328.03 88.5 318.01 98.82 305.66 98.82C293.31 98.82 283.29 88.5 283.29 75.8C283.29 63.09 293.31 52.77 305.66 52.77C318.01 52.77 328.03 63.09 328.03 75.8Z" id="f2Hdg99jhs"></path><path d="M1381.87 11.5C1381.87 50.72 1351.21 82.55 1313.45 82.55C1275.69 82.55 1245.03 50.72 1245.03 11.5C1245.03 -27.72 1275.69 -59.55 1313.45 -59.55C1351.21 -59.55 1381.87 -27.72 1381.87 11.5Z" id="aKNLzXNMG"></path></defs><g><g><g><use xlink:href="#d1quYzI9oa" opacity="0.54" fill="#ffffff" fill-opacity="1"></use></g><g><use xlink:href="#igLyKSF9U" opacity="1" fill="#5582c3" fill-opacity="1"></use></g><g><g><filter id="shadow9667181" x="-77.42" y="73.68" width="155.84" height="161.11" filterUnits="userSpaceOnUse" primitiveUnits="userSpaceOnUse"><feFlood></feFlood><feComposite in2="SourceAlpha" operator="in"></feComposite><feGaussianBlur stdDeviation="1"></feGaussianBlur><feOffset dx="1" dy="1" result="afterOffset"></feOffset><feFlood flood-color="#000000" flood-opacity="0.5"></feFlood><feComposite in2="afterOffset" operator="in"></feComposite><feMorphology operator="dilate" radius="1"></feMorphology><feComposite in2="SourceAlpha" operator="out"></feComposite></filter><path d="M68.42 153.74C68.42 192.95 37.76 224.79 0 224.79C-37.76 224.79 -68.42 192.95 -68.42 153.74C-68.42 114.52 -37.76 82.68 0 82.68C37.76 82.68 68.42 114.52 68.42 153.74Z" id="c1l7tOCmFr" fill="white" fill-opacity="1" filter="url(#shadow9667181)"></path></g><use xlink:href="#a2p8IoCSSC" opacity="1" fill="#1853a8" fill-opacity="1"></use></g><g><use xlink:href="#apGwLO6yI" opacity="1" fill="#1853a8" fill-opacity="1"></use></g><g><g><filter id="shadow8383557" x="469.92" y="555" width="66.37" height="65.05" filterUnits="userSpaceOnUse" primitiveUnits="userSpaceOnUse"><feFlood></feFlood><feComposite in2="SourceAlpha" operator="in"></feComposite><feGaussianBlur stdDeviation="1"></feGaussianBlur><feOffset dx="1" dy="1" result="afterOffset"></feOffset><feFlood flood-color="#000000" flood-opacity="0.2"></feFlood><feComposite in2="afterOffset" operator="in"></feComposite><feMorphology operator="dilate" radius="1"></feMorphology><feComposite in2="SourceAlpha" operator="out"></feComposite></filter><path d="M526.29 587.03C526.29 599.73 515.68 610.05 502.6 610.05C489.53 610.05 478.92 599.73 478.92 587.03C478.92 574.32 489.53 564 502.6 564C515.68 564 526.29 574.32 526.29 587.03Z" id="aOPmnAxkK" fill="white" fill-opacity="1" filter="url(#shadow8383557)"></path></g><use xlink:href="#b3MtCd3jK6" opacity="1" fill="#1853a8" fill-opacity="1"></use></g><g><use xlink:href="#blKMxbKz1" opacity="1" fill="#141415" fill-opacity="1"></use></g><g><g><filter id="shadow14802198" x="-20.84" y="435.58" width="99.26" height="104.53" filterUnits="userSpaceOnUse" primitiveUnits="userSpaceOnUse"><feFlood></feFlood><feComposite in2="SourceAlpha" operator="in"></feComposite><feGaussianBlur stdDeviation="1"></feGaussianBlur><feOffset dx="1" dy="1" result="afterOffset"></feOffset><feFlood flood-color="#000000" flood-opacity="0.5"></feFlood><feComposite in2="afterOffset" operator="in"></feComposite><feMorphology operator="dilate" radius="1"></feMorphology><feComposite in2="SourceAlpha" operator="out"></feComposite></filter><path d="M68.42 487.34C68.42 510.94 50.44 530.11 28.29 530.11C6.14 530.11 -11.84 510.94 -11.84 487.34C-11.84 463.74 6.14 444.58 28.29 444.58C50.44 444.58 68.42 463.74 68.42 487.34Z" id="azFVlYkwM" fill="white" fill-opacity="1" filter="url(#shadow14802198)"></path></g><use xlink:href="#e2NnocX5j1" opacity="1" fill="#333333" fill-opacity="1"></use></g><g><use xlink:href="#bbUwPt943" opacity="1" fill="#7094c3" fill-opacity="1"></use></g><g><g><filter id="shadow3221923" x="1221.53" y="402.78" width="55" height="57.82" filterUnits="userSpaceOnUse" primitiveUnits="userSpaceOnUse"><feFlood></feFlood><feComposite in2="SourceAlpha" operator="in"></feComposite><feGaussianBlur stdDeviation="1"></feGaussianBlur><feOffset dx="1" dy="1" result="afterOffset"></feOffset><feFlood flood-color="#000000" flood-opacity="0.5"></feFlood><feComposite in2="afterOffset" operator="in"></feComposite><feMorphology operator="dilate" radius="1"></feMorphology><feComposite in2="SourceAlpha" operator="out"></feComposite></filter><path d="M1266.53 431.18C1266.53 441.9 1258.46 450.59 1248.53 450.59C1238.59 450.59 1230.53 441.9 1230.53 431.18C1230.53 420.47 1238.59 411.78 1248.53 411.78C1258.46 411.78 1266.53 420.47 1266.53 431.18Z" id="bpugBk5YA" fill="white" fill-opacity="1" filter="url(#shadow3221923)"></path></g><use xlink:href="#dUplJkvd7" opacity="1" fill="#0e2f59" fill-opacity="1"></use></g><g><use xlink:href="#cT0KBeJIK" opacity="1" fill="#27303d" fill-opacity="1"></use></g><g><use xlink:href="#at1U9Z8N4" opacity="1" fill="#8a95a3" fill-opacity="1"></use></g><g><use xlink:href="#djCbU2bC" opacity="1" fill="#484e55" fill-opacity="1"></use></g><g><use xlink:href="#f2Hdg99jhs" opacity="1" fill="#484e55" fill-opacity="0.8"></use></g><g><g><filter id="shadow7017734" x="1236.03" y="-68.55" width="155.84" height="161.11" filterUnits="userSpaceOnUse" primitiveUnits="userSpaceOnUse"><feFlood></feFlood><feComposite in2="SourceAlpha" operator="in"></feComposite><feGaussianBlur stdDeviation="1"></feGaussianBlur><feOffset dx="1" dy="1" result="afterOffset"></feOffset><feFlood flood-color="#000000" flood-opacity="0.5"></feFlood><feComposite in2="afterOffset" operator="in"></feComposite><feMorphology operator="dilate" radius="1"></feMorphology><feComposite in2="SourceAlpha" operator="out"></feComposite></filter><path d="M1381.87 11.5C1381.87 50.72 1351.21 82.55 1313.45 82.55C1275.69 82.55 1245.03 50.72 1245.03 11.5C1245.03 -27.72 1275.69 -59.55 1313.45 -59.55C1351.21 -59.55 1381.87 -27.72 1381.87 11.5Z" id="a1RA2YgaPM" fill="white" fill-opacity="1" filter="url(#shadow7017734)"></path></g><use xlink:href="#aKNLzXNMG" opacity="1" fill="#2b2e33" fill-opacity="1"></use></g></g></g></svg>