<?xml version="1.0" encoding="UTF-8" standalone="no"?>
<!DOCTYPE svg PUBLIC "-//W3C//DTD SVG 1.1//EN" "http://www.w3.org/Graphics/SVG/1.1/DTD/svg11.dtd">
<svg version="1.1" xmlns="http://www.w3.org/2000/svg" xmlns:xlink="http://www.w3.org/1999/xlink" preserveAspectRatio="xMidYMid meet" viewBox="0 0 1366 768" width="1366" height="768"><defs><path d="M-39.47 11.5L1326.53 11.5L1326.53 779.5L-39.47 779.5L-39.47 11.5Z" id="k3zpsXorG"></path><path d="M1729.71 148.58C1729.7 426.43 1260.66 651.98 682.96 651.94C105.27 651.9 -363.73 426.28 -363.71 148.43C-363.7 -129.42 105.34 -354.97 683.04 -354.93C1260.73 -354.89 1729.73 -129.27 1729.71 148.58Z" id="aPLfTfBui"></path><path d="M68.42 153.74C68.42 192.95 37.76 224.79 0 224.79C-37.76 224.79 -68.42 192.95 -68.42 153.74C-68.42 114.52 -37.76 82.68 0 82.68C37.76 82.68 68.42 114.52 68.42 153.74Z" id="cTp0EUmtB"></path><path d="M1277.84 254.39C1277.84 278 1258.68 297.16 1235.08 297.16C1211.48 297.16 1192.32 278 1192.32 254.39C1192.32 230.79 1211.48 211.63 1235.08 211.63C1258.68 211.63 1277.84 230.79 1277.84 254.39Z" id="h2IuE0TBsq"></path><path d="M524.47 587.03C524.47 599.73 513.86 610.05 500.79 610.05C487.71 610.05 477.1 599.73 477.1 587.03C477.1 574.32 487.71 564 500.79 564C513.86 564 524.47 574.32 524.47 587.03Z" id="afk2hdjyd"></path><path d="M1220.53 292.22C1220.53 310.74 1205.2 325.78 1186.32 325.78C1167.43 325.78 1152.11 310.74 1152.11 292.22C1152.11 273.71 1167.43 258.67 1186.32 258.67C1205.2 258.67 1220.53 273.71 1220.53 292.22Z" id="e15RlSMGP"></path><path d="M68.42 487.29C68.42 510.89 50.44 530.05 28.29 530.05C6.14 530.05 -11.84 510.89 -11.84 487.29C-11.84 463.69 6.14 444.53 28.29 444.53C50.44 444.53 68.42 463.69 68.42 487.29Z" id="d7adc8dHS"></path><path d="M500.79 573.95C500.79 590.87 486 604.61 467.79 604.61C449.57 604.61 434.79 590.87 434.79 573.95C434.79 557.03 449.57 543.29 467.79 543.29C486 543.29 500.79 557.03 500.79 573.95Z" id="hJIWFbmjl"></path><path d="M1266.53 431.18C1266.53 441.9 1258.46 450.59 1248.53 450.59C1238.59 450.59 1230.53 441.9 1230.53 431.18C1230.53 420.47 1238.59 411.78 1248.53 411.78C1258.46 411.78 1266.53 420.47 1266.53 431.18Z" id="b5pcmKtvIg"></path><path d="M934.01 518C934.01 543.39 913.72 564 888.73 564C863.73 564 843.44 543.39 843.44 518C843.44 492.61 863.73 472 888.73 472C913.72 472 934.01 492.61 934.01 518Z" id="hmtmWkULD"></path><path d="M888.73 487.34C888.73 470.42 874.45 456.68 856.87 456.68C839.29 456.68 825.02 470.42 825.02 487.34C825.02 504.26 839.29 518 856.87 518C874.45 518 888.73 504.26 888.73 487.34Z" id="a1DsZnxlhq"></path><path d="M322.11 103.77C322.11 125.56 304.71 143.24 283.29 143.24C261.87 143.24 244.48 125.56 244.48 103.77C244.48 81.98 261.87 64.3 283.29 64.3C304.71 64.3 322.11 81.98 322.11 103.77Z" id="e2vQ8HOUeS"></path><path d="M328.03 75.8C328.03 88.5 318.01 98.82 305.66 98.82C293.31 98.82 283.29 88.5 283.29 75.8C283.29 63.09 293.31 52.77 305.66 52.77C318.01 52.77 328.03 63.09 328.03 75.8Z" id="b6xzJ8DvBO"></path><path d="M1381.87 11.5C1381.87 50.72 1351.21 82.55 1313.45 82.55C1275.69 82.55 1245.03 50.72 1245.03 11.5C1245.03 -27.72 1275.69 -59.55 1313.45 -59.55C1351.21 -59.55 1381.87 -27.72 1381.87 11.5Z" id="b10pKboLEd"></path></defs><g><g><g><use xlink:href="#k3zpsXorG" opacity="0.54" fill="#ffffff" fill-opacity="1"></use></g><g><use xlink:href="#aPLfTfBui" opacity="1" fill="#5582c3" fill-opacity="1"></use></g><g><g><filter id="shadow5541677" x="-77.42" y="73.68" width="155.84" height="161.11" filterUnits="userSpaceOnUse" primitiveUnits="userSpaceOnUse"><feFlood></feFlood><feComposite in2="SourceAlpha" operator="in"></feComposite><feGaussianBlur stdDeviation="1"></feGaussianBlur><feOffset dx="1" dy="1" result="afterOffset"></feOffset><feFlood flood-color="#000000" flood-opacity="0.5"></feFlood><feComposite in2="afterOffset" operator="in"></feComposite><feMorphology operator="dilate" radius="1"></feMorphology><feComposite in2="SourceAlpha" operator="out"></feComposite></filter><path d="M68.42 153.74C68.42 192.95 37.76 224.79 0 224.79C-37.76 224.79 -68.42 192.95 -68.42 153.74C-68.42 114.52 -37.76 82.68 0 82.68C37.76 82.68 68.42 114.52 68.42 153.74Z" id="d6Cw16scdz" fill="white" fill-opacity="1" filter="url(#shadow5541677)"></path></g><use xlink:href="#cTp0EUmtB" opacity="1" fill="#1853a8" fill-opacity="1"></use></g><g><use xlink:href="#h2IuE0TBsq" opacity="1" fill="#1853a8" fill-opacity="0.9"></use></g><g><g><filter id="shadow9658831" x="468.1" y="555" width="66.37" height="65.05" filterUnits="userSpaceOnUse" primitiveUnits="userSpaceOnUse"><feFlood></feFlood><feComposite in2="SourceAlpha" operator="in"></feComposite><feGaussianBlur stdDeviation="1"></feGaussianBlur><feOffset dx="1" dy="1" result="afterOffset"></feOffset><feFlood flood-color="#000000" flood-opacity="0.2"></feFlood><feComposite in2="afterOffset" operator="in"></feComposite><feMorphology operator="dilate" radius="1"></feMorphology><feComposite in2="SourceAlpha" operator="out"></feComposite></filter><path d="M524.47 587.03C524.47 599.73 513.86 610.05 500.79 610.05C487.71 610.05 477.1 599.73 477.1 587.03C477.1 574.32 487.71 564 500.79 564C513.86 564 524.47 574.32 524.47 587.03Z" id="a1siHthn1j" fill="white" fill-opacity="1" filter="url(#shadow9658831)"></path></g><use xlink:href="#afk2hdjyd" opacity="1" fill="#1853a8" fill-opacity="0.6"></use></g><g><use xlink:href="#e15RlSMGP" opacity="1" fill="#141415" fill-opacity="0.53"></use></g><g><g><filter id="shadow12259389" x="-20.84" y="435.53" width="99.26" height="104.53" filterUnits="userSpaceOnUse" primitiveUnits="userSpaceOnUse"><feFlood></feFlood><feComposite in2="SourceAlpha" operator="in"></feComposite><feGaussianBlur stdDeviation="1"></feGaussianBlur><feOffset dx="1" dy="1" result="afterOffset"></feOffset><feFlood flood-color="#000000" flood-opacity="0.5"></feFlood><feComposite in2="afterOffset" operator="in"></feComposite><feMorphology operator="dilate" radius="1"></feMorphology><feComposite in2="SourceAlpha" operator="out"></feComposite></filter><path d="M68.42 487.29C68.42 510.89 50.44 530.05 28.29 530.05C6.14 530.05 -11.84 510.89 -11.84 487.29C-11.84 463.69 6.14 444.53 28.29 444.53C50.44 444.53 68.42 463.69 68.42 487.29Z" id="b9oQRwQwZ" fill="white" fill-opacity="1" filter="url(#shadow12259389)"></path></g><use xlink:href="#d7adc8dHS" opacity="1" fill="#333333" fill-opacity="1"></use></g><g><use xlink:href="#hJIWFbmjl" opacity="1" fill="#7094c3" fill-opacity="0.96"></use></g><g><g><filter id="shadow8519962" x="1221.53" y="402.78" width="55" height="57.82" filterUnits="userSpaceOnUse" primitiveUnits="userSpaceOnUse"><feFlood></feFlood><feComposite in2="SourceAlpha" operator="in"></feComposite><feGaussianBlur stdDeviation="1"></feGaussianBlur><feOffset dx="1" dy="1" result="afterOffset"></feOffset><feFlood flood-color="#000000" flood-opacity="0.5"></feFlood><feComposite in2="afterOffset" operator="in"></feComposite><feMorphology operator="dilate" radius="1"></feMorphology><feComposite in2="SourceAlpha" operator="out"></feComposite></filter><path d="M1266.53 431.18C1266.53 441.9 1258.46 450.59 1248.53 450.59C1238.59 450.59 1230.53 441.9 1230.53 431.18C1230.53 420.47 1238.59 411.78 1248.53 411.78C1258.46 411.78 1266.53 420.47 1266.53 431.18Z" id="c2egw2WxwR" fill="white" fill-opacity="1" filter="url(#shadow8519962)"></path></g><use xlink:href="#b5pcmKtvIg" opacity="1" fill="#0e2f59" fill-opacity="1"></use></g><g><use xlink:href="#hmtmWkULD" opacity="1" fill="#27303d" fill-opacity="0.75"></use></g><g><use xlink:href="#a1DsZnxlhq" opacity="1" fill="#8a95a3" fill-opacity="0.75"></use></g><g><use xlink:href="#e2vQ8HOUeS" opacity="1" fill="#484e55" fill-opacity="0.39"></use></g><g><use xlink:href="#b6xzJ8DvBO" opacity="1" fill="#484e55" fill-opacity="0.55"></use></g><g><g><filter id="shadow15515126" x="1236.03" y="-68.55" width="155.84" height="161.11" filterUnits="userSpaceOnUse" primitiveUnits="userSpaceOnUse"><feFlood></feFlood><feComposite in2="SourceAlpha" operator="in"></feComposite><feGaussianBlur stdDeviation="1"></feGaussianBlur><feOffset dx="1" dy="1" result="afterOffset"></feOffset><feFlood flood-color="#000000" flood-opacity="0.5"></feFlood><feComposite in2="afterOffset" operator="in"></feComposite><feMorphology operator="dilate" radius="1"></feMorphology><feComposite in2="SourceAlpha" operator="out"></feComposite></filter><path d="M1381.87 11.5C1381.87 50.72 1351.21 82.55 1313.45 82.55C1275.69 82.55 1245.03 50.72 1245.03 11.5C1245.03 -27.72 1275.69 -59.55 1313.45 -59.55C1351.21 -59.55 1381.87 -27.72 1381.87 11.5Z" id="a30W6dsBJV" fill="white" fill-opacity="1" filter="url(#shadow15515126)"></path></g><use xlink:href="#b10pKboLEd" opacity="1" fill="#2b2e33" fill-opacity="1"></use></g></g></g></svg>