<?xml version="1.0" encoding="UTF-8" standalone="no"?>
<!DOCTYPE svg PUBLIC "-//W3C//DTD SVG 1.1//EN" "http://www.w3.org/Graphics/SVG/1.1/DTD/svg11.dtd">
<svg version="1.1" xmlns="http://www.w3.org/2000/svg" xmlns:xlink="http://www.w3.org/1999/xlink" preserveAspectRatio="xMidYMid meet" viewBox="0 0 850 768" width="850" height="768"><defs><path d="M-39.47 7.78L1326.53 7.78L1326.53 775.78L-39.47 775.78L-39.47 7.78Z" id="i3TW4e0iTW"></path><path d="M1081.87 43.13C1081.84 419.77 787.49 725.53 424.95 725.5C62.41 725.48 -231.9 419.67 -231.87 43.03C-231.84 -333.61 62.51 -639.37 425.05 -639.35C787.59 -639.32 1081.9 -333.51 1081.87 43.13Z" id="a2X5S8JmLZ"></path><path d="M772.15 11.5C772.15 50.72 741.49 82.55 703.73 82.55C665.96 82.55 635.3 50.72 635.3 11.5C635.3 -27.72 665.96 -59.55 703.73 -59.55C741.49 -59.55 772.15 -27.72 772.15 11.5Z" id="e2scnRNLnU"></path><path d="M880.84 301.39C880.84 325 861.68 344.16 838.08 344.16C814.48 344.16 795.32 325 795.32 301.39C795.32 277.79 814.48 258.63 838.08 258.63C861.68 258.63 880.84 277.79 880.84 301.39Z" id="ai4VGQeFl"></path><path d="M260.49 463.7C250.53 455.81 235.85 457.73 227.73 467.98C219.62 478.23 221.12 492.95 231.08 500.84C241.05 508.73 255.72 506.81 263.84 496.57C271.95 486.32 270.45 471.59 260.49 463.7Z" id="b1WtLowkXb"></path><path d="M884.21 358.22C884.21 376.74 868.88 391.78 850 391.78C831.12 391.78 815.79 376.74 815.79 358.22C815.79 339.71 831.12 324.67 850 324.67C868.88 324.67 884.21 339.71 884.21 358.22Z" id="bmXaSLr8t"></path><path d="M67.42 412.18C67.42 435.79 49.44 454.95 27.29 454.95C5.14 454.95 -12.84 435.79 -12.84 412.18C-12.84 388.58 5.14 369.42 27.29 369.42C49.44 369.42 67.42 388.58 67.42 412.18Z" id="b2ENFsTutA"></path><path d="M253.37 452.08C253.37 469.01 238.59 482.74 220.37 482.74C202.16 482.74 187.37 469.01 187.37 452.08C187.37 435.16 202.16 421.43 220.37 421.43C238.59 421.43 253.37 435.16 253.37 452.08Z" id="ar0YeDQXm"></path><path d="M70.53 375.18C70.53 385.9 62.46 394.59 52.53 394.59C42.59 394.59 34.53 385.9 34.53 375.18C34.53 364.47 42.59 355.78 52.53 355.78C62.46 355.78 70.53 364.47 70.53 375.18Z" id="d3Jzfq9yuX"></path><path d="M671.01 440.59C671.01 465.98 650.72 486.59 625.73 486.59C600.73 486.59 580.44 465.98 580.44 440.59C580.44 415.2 600.73 394.59 625.73 394.59C650.72 394.59 671.01 415.2 671.01 440.59Z" id="beJekFccJ"></path><path d="M619.73 394.59C619.73 377.67 605.45 363.93 587.87 363.93C570.29 363.93 556.02 377.67 556.02 394.59C556.02 411.51 570.29 425.25 587.87 425.25C605.45 425.25 619.73 411.51 619.73 394.59Z" id="dgMjwkoQ5"></path><path d="M175.6 82.55C175.6 104.34 158.21 122.03 136.79 122.03C115.36 122.03 97.97 104.34 97.97 82.55C97.97 60.77 115.36 43.08 136.79 43.08C158.21 43.08 175.6 60.77 175.6 82.55Z" id="h1qaTjWRPz"></path><path d="M192.16 55.8C192.16 68.5 182.13 78.82 169.79 78.82C157.44 78.82 147.42 68.5 147.42 55.8C147.42 43.09 157.44 32.77 169.79 32.77C182.13 32.77 192.16 43.09 192.16 55.8Z" id="b2gAnWYGyQ"></path><path d="M1381.87 11.5C1381.87 50.72 1351.21 82.55 1313.45 82.55C1275.69 82.55 1245.03 50.72 1245.03 11.5C1245.03 -27.72 1275.69 -59.55 1313.45 -59.55C1351.21 -59.55 1381.87 -27.72 1381.87 11.5Z" id="bagxOaUsJ"></path><path d="M673.44 63.8C673.44 76.5 663.42 86.82 651.07 86.82C638.73 86.82 628.7 76.5 628.7 63.8C628.7 51.09 638.73 40.77 651.07 40.77C663.42 40.77 673.44 51.09 673.44 63.8Z" id="aMsgV7Clb"></path></defs><g><g><g><use xlink:href="#i3TW4e0iTW" opacity="0.54" fill="#ffffff" fill-opacity="1"></use></g><g><use xlink:href="#a2X5S8JmLZ" opacity="1" fill="#5582c3" fill-opacity="1"></use></g><g><g><filter id="shadow11837763" x="626.3" y="-68.55" width="155.84" height="161.11" filterUnits="userSpaceOnUse" primitiveUnits="userSpaceOnUse"><feFlood></feFlood><feComposite in2="SourceAlpha" operator="in"></feComposite><feGaussianBlur stdDeviation="1"></feGaussianBlur><feOffset dx="1" dy="1" result="afterOffset"></feOffset><feFlood flood-color="#000000" flood-opacity="0.5"></feFlood><feComposite in2="afterOffset" operator="in"></feComposite><feMorphology operator="dilate" radius="1"></feMorphology><feComposite in2="SourceAlpha" operator="out"></feComposite></filter><path d="M772.15 11.5C772.15 50.72 741.49 82.55 703.73 82.55C665.96 82.55 635.3 50.72 635.3 11.5C635.3 -27.72 665.96 -59.55 703.73 -59.55C741.49 -59.55 772.15 -27.72 772.15 11.5Z" id="b1hgwplIlL" fill="white" fill-opacity="1" filter="url(#shadow11837763)"></path></g><use xlink:href="#e2scnRNLnU" opacity="1" fill="#1853a8" fill-opacity="1"></use></g><g><use xlink:href="#ai4VGQeFl" opacity="1" fill="#1853a8" fill-opacity="0.9"></use></g><g><g><filter id="shadow11865791" x="213.51" y="449.84" width="65.56" height="65.86" filterUnits="userSpaceOnUse" primitiveUnits="userSpaceOnUse"><feFlood></feFlood><feComposite in2="SourceAlpha" operator="in"></feComposite><feGaussianBlur stdDeviation="1"></feGaussianBlur><feOffset dx="1" dy="1" result="afterOffset"></feOffset><feFlood flood-color="#000000" flood-opacity="0.2"></feFlood><feComposite in2="afterOffset" operator="in"></feComposite><feMorphology operator="dilate" radius="1"></feMorphology><feComposite in2="SourceAlpha" operator="out"></feComposite></filter><path d="M260.49 463.7C250.53 455.81 235.85 457.73 227.73 467.98C219.62 478.23 221.12 492.95 231.08 500.84C241.05 508.73 255.72 506.81 263.84 496.57C271.95 486.32 270.45 471.59 260.49 463.7Z" id="aAjQA2plW" fill="white" fill-opacity="1" filter="url(#shadow11865791)"></path></g><use xlink:href="#b1WtLowkXb" opacity="1" fill="#1853a8" fill-opacity="0.6"></use></g><g><use xlink:href="#bmXaSLr8t" opacity="1" fill="#141415" fill-opacity="0.53"></use></g><g><g><filter id="shadow16558067" x="-21.84" y="360.42" width="99.26" height="104.53" filterUnits="userSpaceOnUse" primitiveUnits="userSpaceOnUse"><feFlood></feFlood><feComposite in2="SourceAlpha" operator="in"></feComposite><feGaussianBlur stdDeviation="1"></feGaussianBlur><feOffset dx="1" dy="1" result="afterOffset"></feOffset><feFlood flood-color="#000000" flood-opacity="0.5"></feFlood><feComposite in2="afterOffset" operator="in"></feComposite><feMorphology operator="dilate" radius="1"></feMorphology><feComposite in2="SourceAlpha" operator="out"></feComposite></filter><path d="M67.42 412.18C67.42 435.79 49.44 454.95 27.29 454.95C5.14 454.95 -12.84 435.79 -12.84 412.18C-12.84 388.58 5.14 369.42 27.29 369.42C49.44 369.42 67.42 388.58 67.42 412.18Z" id="a6XklLFUpY" fill="white" fill-opacity="1" filter="url(#shadow16558067)"></path></g><use xlink:href="#b2ENFsTutA" opacity="1" fill="#333333" fill-opacity="1"></use></g><g><use xlink:href="#ar0YeDQXm" opacity="1" fill="#7094c3" fill-opacity="0.96"></use></g><g><g><filter id="shadow7124441" x="25.53" y="346.78" width="55" height="57.82" filterUnits="userSpaceOnUse" primitiveUnits="userSpaceOnUse"><feFlood></feFlood><feComposite in2="SourceAlpha" operator="in"></feComposite><feGaussianBlur stdDeviation="1"></feGaussianBlur><feOffset dx="1" dy="1" result="afterOffset"></feOffset><feFlood flood-color="#000000" flood-opacity="0.5"></feFlood><feComposite in2="afterOffset" operator="in"></feComposite><feMorphology operator="dilate" radius="1"></feMorphology><feComposite in2="SourceAlpha" operator="out"></feComposite></filter><path d="M70.53 375.18C70.53 385.9 62.46 394.59 52.53 394.59C42.59 394.59 34.53 385.9 34.53 375.18C34.53 364.47 42.59 355.78 52.53 355.78C62.46 355.78 70.53 364.47 70.53 375.18Z" id="hst3fovFD" fill="white" fill-opacity="1" filter="url(#shadow7124441)"></path></g><use xlink:href="#d3Jzfq9yuX" opacity="0.78" fill="#0e2f59" fill-opacity="1"></use></g><g><use xlink:href="#beJekFccJ" opacity="1" fill="#27303d" fill-opacity="0.75"></use></g><g><use xlink:href="#dgMjwkoQ5" opacity="1" fill="#8a95a3" fill-opacity="0.75"></use></g><g><use xlink:href="#h1qaTjWRPz" opacity="1" fill="#484e55" fill-opacity="0.39"></use></g><g><use xlink:href="#b2gAnWYGyQ" opacity="1" fill="#484e55" fill-opacity="0.55"></use></g><g><g><filter id="shadow6752778" x="1236.03" y="-68.55" width="155.84" height="161.11" filterUnits="userSpaceOnUse" primitiveUnits="userSpaceOnUse"><feFlood></feFlood><feComposite in2="SourceAlpha" operator="in"></feComposite><feGaussianBlur stdDeviation="1"></feGaussianBlur><feOffset dx="1" dy="1" result="afterOffset"></feOffset><feFlood flood-color="#000000" flood-opacity="0.5"></feFlood><feComposite in2="afterOffset" operator="in"></feComposite><feMorphology operator="dilate" radius="1"></feMorphology><feComposite in2="SourceAlpha" operator="out"></feComposite></filter><path d="M1381.87 11.5C1381.87 50.72 1351.21 82.55 1313.45 82.55C1275.69 82.55 1245.03 50.72 1245.03 11.5C1245.03 -27.72 1275.69 -59.55 1313.45 -59.55C1351.21 -59.55 1381.87 -27.72 1381.87 11.5Z" id="b73e367Y" fill="white" fill-opacity="1" filter="url(#shadow6752778)"></path></g><use xlink:href="#bagxOaUsJ" opacity="1" fill="#2b2e33" fill-opacity="1"></use></g><g><use xlink:href="#aMsgV7Clb" opacity="1" fill="#484e55" fill-opacity="0.55"></use></g></g></g></svg>